<?xml version="1.0" standalone="no"?>
<!DOCTYPE svg PUBLIC "-//W3C//DTD SVG 20010904//EN"
 "http://www.w3.org/TR/2001/REC-SVG-20010904/DTD/svg10.dtd">
<svg version="1.0" xmlns="http://www.w3.org/2000/svg"
 width="1200.000000pt" height="1200.000000pt" viewBox="0 0 1200.000000 1200.000000"
 preserveAspectRatio="xMidYMid meet">

<g transform="translate(0.000000,1200.000000) scale(0.100000,-0.100000)"
fill="#000000" stroke="none">
<path d="M5802 8178 c-7 -7 -12 -26 -12 -44 0 -17 -7 -37 -15 -44 -8 -7 -15
-29 -15 -50 0 -21 7 -43 15 -50 33 -27 17 -40 -48 -40 l-63 0 -131 -133 -131
-133 0 -202 c0 -157 3 -204 14 -212 17 -15 33 -5 44 26 6 15 18 24 30 24 12 0
24 -9 30 -24 11 -31 27 -41 45 -26 10 8 13 48 12 178 l-2 167 33 29 32 28 0
-119 c0 -123 6 -143 42 -143 16 0 18 -11 18 -109 0 -93 3 -112 18 -123 9 -7
17 -24 17 -38 0 -14 -8 -31 -17 -38 -15 -11 -18 -30 -18 -121 0 -90 -3 -110
-16 -115 -9 -3 -14 -15 -12 -28 3 -22 6 -23 139 -26 113 -2 138 0 149 13 10
13 10 19 -4 33 -13 15 -16 40 -16 125 0 89 -3 108 -17 119 -10 7 -18 24 -18
38 0 14 8 31 18 38 14 11 17 30 17 123 l0 109 60 0 60 0 0 -109 c0 -93 3 -112
18 -123 9 -7 17 -24 17 -38 0 -14 -8 -31 -17 -38 -15 -11 -18 -30 -18 -121 0
-90 -3 -110 -16 -115 -9 -3 -14 -15 -12 -28 3 -22 6 -23 139 -26 113 -2 138 0
149 13 10 13 10 19 -4 33 -13 15 -16 40 -16 125 0 89 -3 108 -17 119 -10 7
-18 24 -18 38 0 14 8 31 18 38 14 11 17 30 17 123 0 98 2 109 18 109 36 0 42
20 42 143 l0 119 33 -28 32 -29 -2 -167 c-1 -130 2 -170 12 -178 18 -15 34 -5
45 26 6 15 18 24 30 24 12 0 24 -9 30 -24 11 -31 27 -41 44 -26 11 8 14 55 14
212 l0 202 -131 133 -131 133 -63 0 c-65 0 -81 13 -48 40 8 7 15 29 15 50 0
21 -7 43 -15 50 -8 7 -15 27 -15 44 0 54 -7 56 -210 56 -131 0 -190 -4 -198
-12z m348 -138 l0 -90 -150 0 -150 0 0 90 0 90 150 0 150 0 0 -90z m150 -360
l0 -210 -300 0 -300 0 0 210 0 210 300 0 300 0 0 -210z m-691 44 l-33 -34 -23
22 -23 22 52 53 53 54 3 -42 c3 -36 -1 -47 -29 -75z m839 -11 l-22 -23 -33 32
c-28 27 -33 39 -33 77 l0 45 55 -54 55 -54 -22 -23z m-933 -63 c0 -18 -6 -26
-23 -28 -24 -4 -38 18 -28 44 3 9 15 14 28 12 17 -2 23 -10 23 -28z m1020 0
c0 -18 -6 -26 -23 -28 -24 -4 -38 18 -28 44 3 9 15 14 28 12 17 -2 23 -10 23
-28z m-1015 -180 l0 -90 -30 0 -30 0 0 90 0 90 30 0 30 0 0 -90z m1020 0 l0
-90 -30 0 -30 0 0 90 0 90 30 0 30 0 0 -90z m-660 -150 l0 -90 -60 0 -60 0 0
90 0 90 60 0 60 0 0 -90z m360 0 l0 -90 -60 0 -60 0 0 90 0 90 60 0 60 0 0
-90z m-395 -180 c0 -18 -6 -26 -23 -28 -24 -4 -38 18 -28 44 3 9 15 14 28 12
17 -2 23 -10 23 -28z m360 0 c0 -18 -6 -26 -23 -28 -24 -4 -38 18 -28 44 3 9
15 14 28 12 17 -2 23 -10 23 -28z m-325 -180 l0 -90 -60 0 -60 0 0 90 0 90 60
0 60 0 0 -90z m360 0 l0 -90 -60 0 -60 0 0 90 0 90 60 0 60 0 0 -90z"/>
<path d="M5920 8054 c-11 -12 -10 -18 3 -32 16 -15 18 -15 34 0 13 14 14 20 3
32 -7 9 -16 16 -20 16 -4 0 -13 -7 -20 -16z"/>
<path d="M6040 8054 c-11 -12 -10 -18 3 -32 16 -15 18 -15 34 0 13 14 14 20 3
32 -7 9 -16 16 -20 16 -4 0 -13 -7 -20 -16z"/>
<path d="M5802 7788 c-8 -8 -12 -47 -12 -108 0 -61 4 -100 12 -108 8 -8 67
-12 198 -12 131 0 190 4 198 12 8 8 12 47 12 108 0 61 -4 100 -12 108 -8 8
-67 12 -198 12 -131 0 -190 -4 -198 -12z m348 -108 l0 -60 -30 0 c-29 0 -30 2
-30 45 0 43 -1 45 -30 45 -29 0 -30 -2 -30 -45 0 -43 -1 -45 -30 -45 -27 0
-30 3 -30 30 0 27 -3 30 -30 30 -27 0 -30 -3 -30 -30 0 -27 -3 -30 -30 -30
l-30 0 0 60 0 60 150 0 150 0 0 -60z"/>
<path d="M2400 6975 l0 -75 1350 0 1350 0 0 75 0 75 -1350 0 -1350 0 0 -75z"/>
<path d="M6900 6975 l0 -75 1350 0 1350 0 0 75 0 75 -1350 0 -1350 0 0 -75z"/>
<path d="M1200 5400 l0 -1200 4800 0 4800 0 0 1200 0 1200 -4800 0 -4800 0 0
-1200z m9450 0 l0 -1050 -4650 0 -4650 0 0 1050 0 1050 4650 0 4650 0 0 -1050z"/>
<path d="M9457 5887 c-10 -57 -25 -130 -35 -163 -17 -58 -17 -59 -22 -24 -5
33 -7 35 -45 36 -79 3 -75 0 -75 54 l0 50 65 0 65 0 0 51 0 51 -37 -6 c-21 -3
-113 -5 -205 -6 l-168 0 0 -117 -1 -118 -22 30 c-12 16 -42 54 -66 84 -35 43
-42 59 -37 82 5 26 1 30 -51 54 -31 14 -57 24 -58 23 -2 -2 -24 -54 -49 -117
-51 -123 -106 -226 -167 -308 -22 -29 -39 -56 -39 -60 0 -4 19 -19 42 -32 24
-13 37 -26 30 -29 -8 -2 -12 -24 -12 -61 l0 -56 75 3 75 4 0 -78 0 -79 -38 68
-39 67 -49 -36 c-27 -21 -51 -39 -52 -40 -2 -1 24 -52 58 -113 l62 -111 29 21
29 20 0 -21 c0 -24 -20 -33 -111 -51 -35 -6 -65 -13 -66 -14 -2 -1 6 -19 16
-41 10 -21 22 -54 26 -71 3 -18 8 -33 9 -33 2 0 79 38 172 84 93 46 179 87
192 91 19 6 22 13 22 61 0 30 -2 54 -4 54 -2 0 -30 -11 -62 -25 -51 -22 -55
-23 -34 -6 14 12 28 21 32 21 4 0 5 12 3 28 -4 19 4 42 29 82 l35 55 -22 17
c-66 50 -66 50 -15 45 l47 -4 4 56 c3 48 3 46 5 -22 l2 -77 213 2 212 3 0 40
0 40 -67 3 -68 3 0 69 0 69 53 3 c31 2 61 -2 74 -10 19 -12 23 -11 33 8 11 21
13 20 44 -26 18 -27 52 -83 76 -124 24 -41 45 -76 46 -78 1 -2 27 10 58 25 41
20 55 32 51 43 -10 27 -129 220 -156 253 -23 28 -29 30 -43 18 -25 -21 -28 -9
-10 34 l15 38 105 -6 104 -7 0 50 0 50 -91 0 c-81 0 -90 2 -85 18 12 43 25
101 31 144 l6 47 -38 6 c-21 4 -49 8 -63 11 -25 5 -26 3 -43 -99z m-297 -95
c0 -53 -5 -63 -26 -55 -9 3 -14 21 -14 54 0 42 3 49 20 49 17 0 20 -7 20 -48z
m-312 -114 c21 -29 42 -59 46 -65 5 -10 -12 -13 -73 -13 l-81 0 32 65 c18 36
33 65 35 65 1 0 20 -24 41 -52z m152 -138 l0 -120 -42 -1 c-24 -1 -59 -2 -78
-3 -33 -1 -35 1 -38 36 l-3 37 62 3 61 3 2 53 c1 45 -1 52 -18 52 -17 0 -16 3
9 30 16 17 32 30 37 30 4 0 8 -54 8 -120z m270 70 l0 -30 -75 0 -75 0 0 30 0
30 75 0 75 0 0 -30z m-550 -161 l0 -42 -47 7 c-25 3 -48 8 -50 10 -3 2 3 18
12 35 13 26 22 31 50 31 34 0 35 -1 35 -41z m440 -29 c0 -63 -2 -70 -20 -70
-18 0 -20 7 -20 63 0 66 4 77 27 77 10 0 13 -18 13 -70z m-300 -119 c0 -6 -4
-13 -10 -16 -5 -3 -10 1 -10 9 0 9 5 16 10 16 6 0 10 -4 10 -9z"/>
<path d="M3193 5935 c-90 -39 -100 -189 -17 -254 57 -45 146 -36 199 19 23 24
30 41 33 89 4 50 0 66 -18 97 -37 59 -124 81 -197 49z m105 -81 c41 -29 19
-114 -30 -114 -26 0 -58 36 -58 65 0 26 31 65 53 65 7 0 23 -7 35 -16z"/>
<path d="M7380 5375 l0 -575 70 0 70 0 0 50 0 50 388 -2 387 -3 0 -45 0 -45
68 -3 67 -3 0 576 0 575 -525 0 -525 0 0 -575z m287 427 c-28 -29 -34 -41 -25
-50 8 -8 1 -13 -31 -18 l-42 -7 6 -40 c18 -105 89 -271 152 -355 14 -18 22
-39 20 -46 -6 -15 -155 -129 -198 -151 l-29 -16 0 361 0 360 92 0 92 0 -37
-38z m390 2 c-3 -20 -9 -39 -12 -42 -6 -7 -53 36 -66 61 -9 15 -4 17 37 17
l47 0 -6 -36z m235 24 c2 -7 4 -177 3 -378 -1 -425 17 -386 -140 -310 -109 52
-218 127 -212 145 3 6 29 45 59 87 65 90 149 250 188 357 l28 76 -52 16 -51
17 86 1 c61 1 88 -3 91 -11z m-432 -225 c62 57 68 61 84 48 12 -10 20 -9 40 4
14 10 26 13 26 8 0 -19 -83 -171 -122 -221 -33 -44 -42 -51 -54 -41 -34 28
-104 174 -119 249 l-7 35 59 -57 58 -57 35 32z m63 -480 c40 -32 89 -67 110
-78 20 -11 37 -23 37 -27 0 -5 -94 -8 -210 -8 -115 0 -210 4 -210 8 0 4 12 15
28 24 15 9 59 44 97 77 39 33 71 60 73 60 1 1 35 -25 75 -56z m372 -89 c0 -13
-8 -20 -27 -22 -32 -4 -35 4 -11 30 20 22 38 19 38 -8z"/>
<path d="M3920 5865 c-6 -15 -10 -31 -10 -37 0 -21 -88 -196 -128 -255 -60
-89 -138 -169 -214 -223 -75 -53 -76 -48 15 -99 l58 -33 46 38 c26 21 83 82
127 136 l81 98 152 0 153 0 0 -43 c0 -67 -35 -190 -77 -270 -46 -88 -163 -211
-245 -257 -32 -17 -58 -33 -58 -35 0 -2 30 -22 66 -45 79 -50 79 -50 177 40
146 135 228 290 266 508 l17 97 168 3 167 2 -3 62 -3 61 -352 -2 -353 -2 40
78 c22 43 46 85 52 95 16 23 -2 43 -74 79 l-58 29 -10 -25z"/>
<path d="M2818 5844 c-5 -4 -8 -56 -8 -116 l0 -108 -225 0 -225 0 0 -65 0 -65
225 0 225 0 0 -260 c0 -303 6 -287 -108 -272 -37 5 -68 9 -69 8 -1 -1 14 -35
35 -75 l37 -73 75 4 c88 5 133 25 157 71 16 28 18 67 21 314 l3 283 222 2 222
3 0 60 0 60 -224 3 -223 2 3 100 c2 62 -1 104 -8 111 -13 13 -125 24 -135 13z"/>
<path d="M6205 5784 c-30 -27 -45 -47 -38 -50 43 -19 146 -96 206 -154 l70
-69 53 47 c30 25 54 49 54 53 0 20 -260 219 -287 219 -5 0 -31 -20 -58 -46z"/>
<path d="M4980 5735 l0 -65 140 0 140 0 0 -110 0 -110 -205 0 -205 0 0 -65 0
-65 203 -2 202 -3 5 -160 c6 -184 13 -206 82 -245 39 -23 56 -25 178 -29 74
-1 186 0 248 4 l112 7 0 74 c0 72 -1 74 -22 69 -34 -7 -283 -25 -353 -25 -102
0 -105 5 -105 171 l0 139 275 0 275 0 0 65 0 65 -275 0 -275 0 0 110 0 110
200 0 200 0 0 65 0 65 -410 0 -410 0 0 -65z"/>
<path d="M7060 5534 c-120 -122 -319 -272 -482 -362 -79 -44 -252 -117 -340
-143 -40 -12 -75 -23 -77 -25 -5 -5 63 -95 93 -123 l26 -25 30 22 c16 12 70
40 120 62 236 102 498 276 720 478 l55 51 -34 65 c-19 36 -38 66 -41 66 -3 0
-35 -30 -70 -66z"/>
<path d="M2496 5341 c-26 -87 -82 -176 -161 -257 l-71 -72 69 -34 69 -33 43
47 c50 56 195 285 195 310 0 16 -21 34 -91 76 l-35 21 -18 -58z"/>
<path d="M3145 5349 c-22 -17 -44 -34 -48 -38 -5 -5 22 -47 60 -94 57 -70 99
-136 175 -269 4 -8 25 2 63 32 30 23 58 47 61 51 13 22 -237 351 -265 348 -3
0 -24 -14 -46 -30z"/>
<path d="M9030 5090 l0 -150 -50 0 -50 0 0 -50 0 -50 410 0 410 0 0 50 0 50
-50 0 -50 0 0 150 0 150 -310 0 -310 0 0 -150z m168 -47 l3 -103 -26 0 -25 0
0 106 c0 104 0 105 23 102 21 -3 22 -8 25 -105z m172 2 l0 -105 -25 0 -25 0 0
105 0 105 25 0 25 0 0 -105z m160 0 c0 -98 -1 -105 -20 -105 -19 0 -20 7 -20
105 0 98 1 105 20 105 19 0 20 -7 20 -105z"/>
<path d="M2400 3750 l0 -70 3600 0 3600 0 0 70 0 70 -3600 0 -3600 0 0 -70z"/>
</g>
</svg>
